# xmcd
#
# Track frame offsets: 
#        150
#        17175
#        29970
#        44787
#        62347
#        75388
#        88526
#        99261
#        112636
#        127514
#        141184
#        163832
#        181769
#        199739
#
# Disc length: 2903 seconds
#
# Revision: 0
# Processed by: cddbd v1.5.2PL0 Copyright (c) Steve Scherf et al.
# Submitted via: ExactAudioCopy v0.99pb2
#
DISCID=ab0b550e
DTITLE=Various Artist - R&B CD2
DYEAR=1900
DGENRE=
TTITLE0=I'll Be There
TTITLE1=Billie Jean
TTITLE2=Cinnamon Girl
TTITLE3=Breathe Again
TTITLE4=The Day
TTITLE5=Hello
TTITLE6=Spring Summer Feeling
TTITLE7=Spirit
TTITLE8=No Scrubs
TTITLE9=It Wasn't Me
TTITLE10=You Don't Know My Name
TTITLE11=Lose My Breath
TTITLE12=Crazy In Love
TTITLE13=Yeah!
EXTD=
EXTT0=
EXTT1=
EXTT2=
EXTT3=
EXTT4=
EXTT5=
EXTT6=
EXTT7=
EXTT8=
EXTT9=
EXTT10=
EXTT11=
EXTT12=
EXTT13=
PLAYORDER=
